<svg width="28" height="28" viewBox="0 0 28 28" fill="none" xmlns="http://www.w3.org/2000/svg">
<path d="M0.298584 14.3518C0.30752 6.91986 6.42046 0.806924 13.8524 0.798584C21.2837 0.80752 27.3966 6.92046 27.4056 14.3518C27.3972 21.7837 21.2843 27.8966 13.8524 27.905C6.42046 27.8972 0.306924 21.7837 0.298584 14.3518ZM3.27731 14.3518C3.28386 20.1502 8.0528 24.9191 13.8512 24.9256C19.6496 24.9191 24.4185 20.1502 24.4251 14.3518C24.4191 8.55339 19.6502 3.78386 13.8518 3.77731C8.05339 3.78326 3.28326 8.55339 3.27731 14.3518ZM10.1617 22.0017C9.58446 21.4239 9.58446 20.4736 10.1617 19.8958L15.7057 14.3518L10.1617 8.80777C9.58446 8.2299 9.58446 7.27969 10.1617 6.70182C10.7396 6.12454 11.6898 6.12454 12.2677 6.70182L18.8656 13.2997C19.1444 13.5785 19.3011 13.9574 19.3011 14.3518C19.3011 14.7462 19.1444 15.1251 18.8656 15.4039L12.2677 22.0017C11.9889 22.2817 11.6088 22.4384 11.2138 22.4372C10.8194 22.4378 10.4405 22.2811 10.1623 22.0017H10.1617Z" fill="#3C3F3F"/>
</svg>
