<svg width="1000" height="1000" viewBox="0 0 1000 1000" fill="none" xmlns="http://www.w3.org/2000/svg">
<path fill-rule="evenodd" clip-rule="evenodd" d="M687.262 824C686.137 824 685.016 823.979 683.901 823.937C671.54 823.473 660.387 817.318 649.959 810.656C606.694 783.014 555.304 766.996 500.178 766.996C445.052 766.996 393.306 783.014 350.041 810.656C339.613 817.318 328.46 823.473 316.099 823.937C314.984 823.979 313.863 824 312.738 824C286.858 824 263.581 812.839 247.446 795.063C237.58 776.422 232 755.125 232 732.449C232 662.755 252.241 602.344 290.06 551.892C305.771 530.933 326.998 513.316 352.777 508.797C359.516 507.616 366.449 507 373.525 507C403.099 507 430.163 512.948 451.03 529.985C453.067 531.649 455.588 532.643 458.217 532.643H541.783C544.412 532.643 546.933 531.649 548.97 529.985C569.837 512.948 596.901 507 626.475 507C633.551 507 640.484 507.616 647.223 508.797C673.002 513.316 694.229 530.933 709.94 551.892C747.759 602.344 768 662.755 768 732.449C768 755.125 762.42 776.422 752.554 795.063C736.418 812.839 713.142 824 687.262 824ZM430.466 640.203C430.466 647.678 424.415 653.737 416.95 653.737H386.063L386.362 682.23C386.362 689.705 380.311 695.764 372.847 695.764C365.382 695.764 359.331 689.705 359.331 682.23V653.737H330.166C322.701 653.737 316.65 647.678 316.65 640.203C316.65 632.729 322.701 626.669 330.166 626.669H359.331V598.889C359.331 591.414 365.382 585.355 372.847 585.355C380.311 585.355 386.362 591.414 386.362 598.889V626.669H416.95C424.415 626.669 430.466 632.729 430.466 640.203ZM648.138 604.588C648.138 615.209 639.539 623.82 628.932 623.82C618.324 623.82 609.725 615.209 609.725 604.588C609.725 593.966 618.324 585.355 628.932 585.355C639.539 585.355 648.138 593.966 648.138 604.588ZM591.942 659.436C602.549 659.436 611.148 650.825 611.148 640.203C611.148 629.582 602.549 620.971 591.942 620.971C581.334 620.971 572.735 629.582 572.735 640.203C572.735 650.825 581.334 659.436 591.942 659.436ZM648.138 676.532C648.138 687.153 639.539 695.764 628.932 695.764C618.324 695.764 609.725 687.153 609.725 676.532C609.725 665.91 618.324 657.299 628.932 657.299C639.539 657.299 648.138 665.91 648.138 676.532ZM664.499 659.436C675.106 659.436 683.705 650.825 683.705 640.203C683.705 629.582 675.106 620.971 664.499 620.971C653.892 620.971 645.293 629.582 645.293 640.203C645.293 650.825 653.892 659.436 664.499 659.436Z" fill="url(#paint0_linear_103_44)"/>
<path d="M626.878 490.425C633.959 490.425 640.896 491.039 647.639 492.217C658.608 494.134 668.753 498.412 678 504.304C642.18 466.648 617.904 417.947 610.829 363.849V272.327C605.94 263.777 546.964 269.958 535.472 272.327C473.144 285.173 453.564 303.605 390.171 304.994V363.849C390.063 364.674 389.952 365.498 389.836 366.321C382.353 419.43 358.274 467.222 323 504.304C332.247 498.412 342.393 494.134 353.361 492.217C360.104 491.039 367.042 490.425 374.123 490.425C403.715 490.425 430.797 496.358 451.677 513.349C453.716 515.008 456.238 516 458.869 516H542.132C544.763 516 547.285 515.008 549.324 513.349C570.203 496.358 597.285 490.425 626.878 490.425Z" fill="url(#paint1_linear_103_44)"/>
<path d="M572.986 324.73C578.028 323.691 585.873 322.853 593.329 322.284V363.849V364.989L593.477 366.119C598.558 404.97 611.929 441.209 631.746 473.01C630.129 472.953 628.507 472.925 626.878 472.925C595.901 472.925 564.859 478.966 539.876 498.5H461.124C436.142 478.966 405.1 472.925 374.123 472.925C372.494 472.925 370.871 472.953 369.255 473.01C388.621 441.932 401.832 406.614 407.165 368.762C407.289 367.882 407.408 367.001 407.524 366.119L407.671 364.989V363.849V362.09C434.836 359.909 460.18 354.223 484.683 347.748C494.139 345.249 503.342 342.673 512.462 340.121C532.429 334.533 552.004 329.055 572.986 324.73ZM593.329 287.191C583.946 287.842 573.335 288.923 565.921 290.451C543.716 295.027 522.192 301.047 501.665 306.789C492.83 309.259 484.181 311.679 475.741 313.909C452.935 319.936 430.738 324.875 407.671 326.964V263.777V252.588L397.515 247.893C387.493 243.259 380.623 233.168 380.623 221.532C380.623 205.53 393.63 192.5 409.746 192.5H591.255C607.371 192.5 620.378 205.53 620.378 221.532C620.378 233.168 613.508 243.259 603.485 247.893L593.329 252.588V263.777V287.191Z" stroke="url(#paint2_linear_103_44)" stroke-width="35"/>
<defs>
<linearGradient id="paint0_linear_103_44" x1="500.5" y1="175" x2="500.5" y2="516" gradientUnits="userSpaceOnUse">
<stop stop-color="#1DCCDF"/>
<stop offset="1" stop-color="#04E593"/>
</linearGradient>
<linearGradient id="paint1_linear_103_44" x1="500.5" y1="175" x2="500.5" y2="516" gradientUnits="userSpaceOnUse">
<stop stop-color="#1DCCDF"/>
<stop offset="1" stop-color="#04E593"/>
</linearGradient>
<linearGradient id="paint2_linear_103_44" x1="500.5" y1="175" x2="500.5" y2="516" gradientUnits="userSpaceOnUse">
<stop stop-color="#1DCCDF"/>
<stop offset="1" stop-color="#04E593"/>
</linearGradient>
</defs>
</svg>
