<svg width="1500" height="1500" viewBox="0 0 1500 1500" fill="none" xmlns="http://www.w3.org/2000/svg">
<path fill-rule="evenodd" clip-rule="evenodd" d="M1182.37 1500C1179.77 1500 1177.18 1499.95 1174.6 1499.85C1146.03 1498.78 1120.24 1484.56 1096.14 1469.16C996.13 1405.27 877.339 1368.25 749.911 1368.25C622.484 1368.25 502.87 1405.27 402.86 1469.16C378.755 1484.56 352.974 1498.78 324.4 1499.85C321.823 1499.95 319.233 1500 316.631 1500C256.808 1500 203.003 1474.21 165.704 1433.12C142.899 1390.04 130 1340.81 130 1288.4C130 1127.32 176.789 987.698 264.208 871.092C300.526 822.649 349.593 781.932 409.184 771.488C424.761 768.758 440.787 767.334 457.145 767.334C525.506 767.334 588.068 781.083 636.302 820.459C641.012 824.304 646.839 826.603 652.916 826.603H846.084C852.161 826.603 857.988 824.304 862.698 820.459C910.932 781.083 973.494 767.334 1041.86 767.334C1058.21 767.334 1074.24 768.758 1089.82 771.488C1149.41 781.932 1198.47 822.649 1234.79 871.092C1322.21 987.698 1369 1127.32 1369 1288.4C1369 1340.81 1356.1 1390.04 1333.3 1433.12C1296 1474.21 1242.19 1500 1182.37 1500ZM588.767 1075.2C588.767 1092.48 574.779 1106.48 557.525 1106.48H486.126L486.819 1172.33C486.819 1189.61 472.831 1203.62 455.577 1203.62C438.322 1203.62 424.334 1189.61 424.334 1172.33V1106.48H356.917C339.662 1106.48 325.675 1092.48 325.675 1075.2C325.675 1057.92 339.662 1043.92 356.917 1043.92H424.334V979.713C424.334 962.437 438.322 948.432 455.577 948.432C472.831 948.432 486.819 962.437 486.819 979.713V1043.92H557.525C574.779 1043.92 588.767 1057.92 588.767 1075.2ZM1091.93 992.883C1091.93 1017.43 1072.05 1037.33 1047.53 1037.33C1023.01 1037.33 1003.14 1017.43 1003.14 992.883C1003.14 968.334 1023.01 948.432 1047.53 948.432C1072.05 948.432 1091.93 968.334 1091.93 992.883ZM962.029 1119.65C986.549 1119.65 1006.43 1099.75 1006.43 1075.2C1006.43 1050.65 986.549 1030.75 962.029 1030.75C937.509 1030.75 917.632 1050.65 917.632 1075.2C917.632 1099.75 937.509 1119.65 962.029 1119.65ZM1091.93 1159.16C1091.93 1183.71 1072.05 1203.62 1047.53 1203.62C1023.01 1203.62 1003.14 1183.71 1003.14 1159.16C1003.14 1134.61 1023.01 1114.71 1047.53 1114.71C1072.05 1114.71 1091.93 1134.61 1091.93 1159.16ZM1129.75 1119.65C1154.27 1119.65 1174.15 1099.75 1174.15 1075.2C1174.15 1050.65 1154.27 1030.75 1129.75 1030.75C1105.23 1030.75 1085.35 1050.65 1085.35 1075.2C1085.35 1099.75 1105.23 1119.65 1129.75 1119.65Z" fill="url(#paint0_linear_109_8)"/>
<path d="M1042.79 729.026C1059.15 729.026 1075.19 730.445 1090.78 733.168C1116.13 737.597 1139.58 747.485 1160.96 761.103C1078.16 674.07 1022.04 561.511 1005.69 436.478V224.947C994.387 205.186 858.061 219.473 831.495 224.947C687.421 254.637 642.159 297.237 495.624 300.448V436.478C495.374 438.385 495.116 440.289 494.848 442.19C477.552 564.938 421.89 675.397 340.353 761.103C361.729 747.485 385.18 737.597 410.535 733.168C426.122 730.445 442.158 729.026 458.526 729.026C526.932 729.026 589.533 742.737 637.799 782.008C642.512 785.843 648.342 788.136 654.424 788.136H846.89C852.972 788.136 858.802 785.843 863.515 782.008C911.78 742.737 974.381 729.026 1042.79 729.026Z" fill="url(#paint1_linear_109_8)"/>
<path d="M913.497 323.537C932.472 319.629 965.513 316.993 988.156 315.956V436.403V437.543L988.304 438.674C1001.85 542.179 1041.86 637.371 1101.32 717.273C1098.83 716.735 1096.32 716.244 1093.79 715.803C1077.21 712.908 1060.16 711.4 1042.77 711.4C972.287 711.4 905.03 725.479 852.373 768.295C850.439 769.868 848.427 770.5 846.781 770.5H654.222C652.575 770.5 650.563 769.868 648.629 768.295C595.971 725.479 528.714 711.4 458.23 711.4C440.841 711.4 423.79 712.908 407.207 715.803C404.677 716.244 402.167 716.735 399.676 717.273C458.007 638.888 497.625 545.788 511.898 444.557C512.174 442.599 512.441 440.638 512.698 438.674L512.846 437.543V436.403V410.832C581.617 407.502 645.429 393.551 708.047 377.016C729.236 371.421 750.159 365.571 771.075 359.723C817.644 346.703 864.174 333.694 913.497 323.537ZM988.156 280.925C964.127 281.968 928.231 284.768 906.437 289.256C855.893 299.665 807.415 313.216 760.286 326.389C739.656 332.155 719.285 337.849 699.112 343.176C637.896 359.34 577.338 372.492 512.846 375.789V205.151V193.958L502.685 189.264C471.695 174.948 450.291 143.698 450.291 107.529C450.291 57.8526 490.685 17.5 540.615 17.5H960.386C1010.32 17.5 1050.71 57.8525 1050.71 107.529C1050.71 143.698 1029.31 174.948 998.317 189.264L988.156 193.958V205.151V280.925Z" stroke="url(#paint2_linear_109_8)" stroke-width="35"/>
<defs>
<linearGradient id="paint0_linear_109_8" x1="750.656" y1="0" x2="750.656" y2="788.136" gradientUnits="userSpaceOnUse">
<stop stop-color="#1DCCDF"/>
<stop offset="1" stop-color="#04E593"/>
</linearGradient>
<linearGradient id="paint1_linear_109_8" x1="750.656" y1="0" x2="750.656" y2="788.136" gradientUnits="userSpaceOnUse">
<stop stop-color="#1DCCDF"/>
<stop offset="1" stop-color="#04E593"/>
</linearGradient>
<linearGradient id="paint2_linear_109_8" x1="750.5" y1="0" x2="750.5" y2="788" gradientUnits="userSpaceOnUse">
<stop stop-color="#1DCCDF"/>
<stop offset="1" stop-color="#04E593"/>
</linearGradient>
</defs>
</svg>
